<svg xmlns="http://www.w3.org/2000/svg" width="117" height="22" fill="none" viewBox="0 0 117 22"><g clip-path="url(#a)"><path fill="#0f2c35" d="M16.6 8a7 7 0 0 1-4.5 6.7q-1.3.6-2.8.5v-2.1a4 4 0 0 1 2-3.6L14.1 8l-2.8-1.6a4 4 0 0 1-2-3.5V.6A7.3 7.3 0 0 1 16.6 8"/><path fill="#004ed8" d="M8 .6V11q0 4.5-2.2 7.3-2 3-5.1 3V11C.7 5.3 4 .6 8 .6"/><g fill="#0f2c35"><path d="M35.5 6.4V18H39V6.4zm22.5 8q-.3 0-.3-.3v-3.4c0-2.7-1.7-4.5-4.3-4.5q-2.1 0-3.5 1.4-1.1-1.5-3.2-1.4-1.4 0-2.4.6v-.4h-3.5V18h3.5v-6.5q0-1.6 1.7-1.7 1.5 0 1.5 1.6V18H51v-6.5q0-1.6 1.7-1.7 1.5 0 1.5 1.6v3.3q0 3.2 3.3 3.3h1.3v-3.5zm9-8.2q-1.6 0-3 .8v-.6h-3.4v15H64V17q1.3.9 2.8.9c3.2 0 5.6-2.5 5.6-5.9 0-3.3-2.4-5.8-5.6-5.8m-.5 9a3 3 0 0 1-3-3.2 3 3 0 0 1 3-3 3 3 0 0 1 3 3 3 3 0 0 1-3 3.1M28.5 7.5q-2.9-.7-3-2c0-1 1.1-1.6 2.2-1.6q2.1.1 2.3 1.8v.4h3.5v-.4c0-2.9-2.5-5-5.7-5s-5.7 2-5.7 5c0 3.4 2.9 4.3 5.2 5 1.6.6 3 1 3 2.2q-.1 1.6-2.4 1.7-2.4-.1-2.6-2v-.4h-3.5v.4c0 3 2.6 5.3 6 5.3s6-2.2 6-5.3c0-3.5-3-4.4-5.3-5m52.6 6.1q-.6 0-1.1-.3 2-3 2-6.9C82 3 80.5.6 77.8.6s-4.5 2.6-4.5 6.6q0 3.6 1.4 6.3l-1 .6-.8.4 1.5 3.4.7-.3 2.1-1.2q1.8 1.2 3.9 1.2h1.5v-4zm-3.4-9.8q1 .1 1.1 2.6 0 2.8-1.4 5-1-1.8-1-4.4 0-3.1 1.3-3.2"/><path fill-rule="evenodd" d="m93.7 13.3.1-1.4c0-2.7-1.3-5.5-5-5.5-3.9 0-5.7 3.1-5.7 5.9 0 3.4 2.2 5.6 6 5.6q2.4 0 4.1-.7l-.4-2.3q-1.5.5-3.1.5c-1.7 0-3.1-.7-3.2-2.1zm-7.2-2.4c0-.9.6-2.2 2.1-2.2 1.6 0 2 1.4 2 2.2z" clip-rule="evenodd"/><path d="M37.2.6a2 2 0 0 0-2 2q.2 2 2 2.1a2 2 0 0 0 2-2 2 2 0 0 0-2-2m73.1-.1h-7.7v17.2h3.6v-5.7h4c3.4 0 6-2.5 6-5.7s-2.6-5.8-6-5.8m0 8h-4.1V4.2h4q2.1.2 2.3 2.3-.2 2.1-2.3 2.3M97.3.6V18h3.5V.6z"/></g></g><defs><clipPath id="a"><path fill="#fff" d="M0 .5h116.9v21H0z"/></clipPath></defs></svg>